HIERARCHY
ROOT Hips
{
	OFFSET -0.001795 -0.223333 0.028219
	CHANNELS 6 Xposition Yposition Zposition Zrotation Yrotation Xrotation 
	JOINT LeftUpLeg
	{
		OFFSET 0.069520 -0.091406 -0.006815
		CHANNELS 3 Zrotation Yrotation Xrotation
		JOINT LeftLeg
		{
			OFFSET 0.034277 -0.375199 -0.004496
			CHANNELS 3 Zrotation Yrotation Xrotation
			JOINT LeftFoot
			{
				OFFSET -0.013596 -0.397961 -0.043693
				CHANNELS 3 Zrotation Yrotation Xrotation
				JOINT LeftToe
				{
					OFFSET 0.026358 -0.055791 0.119288
					CHANNELS 3 Zrotation Yrotation Xrotation
					End Site
					{
						OFFSET 0.000000 0.000000 0.000000
					}
				}
			}
		}
	}
	JOINT RightUpLeg
	{
		OFFSET -0.067670 -0.090522 -0.004320
		CHANNELS 3 Zrotation Yrotation Xrotation
		JOINT RightLeg
		{
			OFFSET -0.038290 -0.382569 -0.008850
			CHANNELS 3 Zrotation Yrotation Xrotation
			JOINT RightFoot
			{
				OFFSET 0.015774 -0.398415 -0.042312
				CHANNELS 3 Zrotation Yrotation Xrotation
				JOINT RightToe
				{
					OFFSET -0.025372 -0.048144 0.123348
					CHANNELS 3 Zrotation Yrotation Xrotation
					End Site
					{
						OFFSET 0.000000 0.000000 0.000000
					}
				}
			}
		}
	}
	JOINT Spine
	{
		OFFSET -0.002533 0.108963 -0.026696
		CHANNELS 3 Zrotation Yrotation Xrotation
		JOINT Spine1
		{
			OFFSET 0.005487 0.135180 0.001092
			CHANNELS 3 Zrotation Yrotation Xrotation
			JOINT Spine2
			{
				OFFSET 0.001457 0.052922 0.025425
				CHANNELS 3 Zrotation Yrotation Xrotation
				JOINT Neck
				{
					OFFSET -0.002778 0.213870 -0.042857
					CHANNELS 3 Zrotation Yrotation Xrotation
					JOINT Head
					{
						OFFSET 0.005152 0.064970 0.051349
						CHANNELS 3 Zrotation Yrotation Xrotation
						End Site
						{
							OFFSET 0.000000 0.000000 0.000000
						}
					}
				}
				JOINT LeftShoulder
				{
					OFFSET 0.078845 0.121749 -0.034090
					CHANNELS 3 Zrotation Yrotation Xrotation
					JOINT LeftArm
					{
						OFFSET 0.090977 0.030469 -0.008868
						CHANNELS 3 Zrotation Yrotation Xrotation
						JOINT LeftForeArm
						{
							OFFSET 0.259612 -0.012772 -0.027456
							CHANNELS 3 Zrotation Yrotation Xrotation
							JOINT LeftHand
							{
								OFFSET 0.249234 0.008986 -0.001171
								CHANNELS 3 Zrotation Yrotation Xrotation
								End Site
								{
									OFFSET 0.000000 0.000000 0.000000
								}
							}
						}
					}
				}
				JOINT RightShoulder
				{
					OFFSET -0.081759 0.118833 -0.038615
					CHANNELS 3 Zrotation Yrotation Xrotation
					JOINT RightArm
					{
						OFFSET -0.096012 0.032551 -0.009143
						CHANNELS 3 Zrotation Yrotation Xrotation
						JOINT RightForeArm
						{
							OFFSET -0.253742 -0.013329 -0.021401
							CHANNELS 3 Zrotation Yrotation Xrotation
							JOINT RightHand
							{
								OFFSET -0.255298 0.007772 -0.005559
								CHANNELS 3 Zrotation Yrotation Xrotation
								End Site
								{
									OFFSET 0.000000 0.000000 0.000000
								}
							}
						}
					}
				}
			}
		}
	}
}
MOTION
Frames: 7
Frame Time: 0.050000
0.268133 0.760856 2.108244 -4.718717 -15.955584 -2.888672 10.833177 4.574448 -50.036129 -4.601457 2.620132 36.619959 5.572853 12.336973 15.950525 0.000000 0.000000 0.000000 -4.066231 3.245482 -29.354881 13.243131 0.228162 82.464126 -5.874834 -14.466761 -2.750947 0.000000 0.000000 0.000000 0.802084 -0.000918 33.089370 -3.192319 1.176226 -7.225530 0.792842 14.664734 -1.611523 8.561027 -2.792129 -18.162241 0.000000 0.000000 0.000000 -8.630012 -12.286689 3.210282 -24.975080 -43.536834 5.384398 104.281918 -51.235353 -63.628066 0.000000 0.000000 0.000000 17.993269 11.431704 6.064676 30.754002 25.516597 2.789600 -142.788093 61.507161 -110.947235 0.000000 0.000000 0.000000 
0.267923 0.706052 2.213511 -3.690286 -13.540603 -5.380616 9.096429 3.607944 -55.706205 -5.946696 4.427101 53.166237 6.843149 13.456894 0.318323 0.000000 0.000000 0.000000 -9.508868 1.918791 -29.519734 14.579614 -2.988836 89.537781 -5.080909 -9.614145 -13.369082 0.000000 0.000000 0.000000 -0.625502 0.325998 36.268039 -0.217013 0.041259 -1.460115 -2.064602 14.507665 -9.625390 10.062286 -3.486240 -16.976946 0.000000 0.000000 0.000000 -14.915242 -12.480142 2.008927 -27.610236 -30.607718 4.435389 117.785684 -60.274296 -88.852307 0.000000 0.000000 0.000000 19.254548 9.281522 5.375487 34.465147 15.446600 0.951847 -162.178496 68.483028 -143.986905 0.000000 0.000000 0.000000 
0.266410 0.648025 2.306349 -2.097012 -15.363332 -7.949993 6.206117 2.870326 -58.075045 -3.063892 4.736752 73.315107 9.129139 17.129144 -20.885602 0.000000 0.000000 0.000000 -9.919198 2.332455 -32.966353 14.050941 -1.483494 100.849384 -6.692228 -14.694612 -26.930389 0.000000 0.000000 0.000000 -0.793933 0.818560 39.009723 -3.645428 1.731250 -0.717230 1.147939 10.905398 -8.165522 7.359697 -2.237632 -17.543818 0.000000 0.000000 0.000000 -20.523526 -9.856477 1.318540 -28.835284 -20.960176 2.392071 130.775802 -63.347822 -105.074017 0.000000 0.000000 0.000000 20.935172 9.727671 4.355645 35.908084 10.675041 0.004744 -167.748694 74.275770 -157.591051 0.000000 0.000000 0.000000 
0.261742 0.604662 2.373164 -2.653694 -12.585126 -9.356485 5.033194 1.423959 -61.686970 -3.172629 4.762556 88.736941 9.708674 18.458769 -26.450506 0.000000 0.000000 0.000000 -9.055650 2.538526 -35.996142 13.328289 -4.036331 109.839455 -6.890714 -17.042766 -23.778466 0.000000 0.000000 0.000000 2.038465 -0.352906 44.744788 -3.213559 1.438448 -3.267833 -0.934285 11.272740 -4.284773 9.998064 -3.302256 -19.718446 0.000000 0.000000 0.000000 -25.509279 -10.306269 0.576486 -26.899900 -15.569007 1.111692 135.974375 -72.716514 -121.081748 0.000000 0.000000 0.000000 25.583864 6.047055 3.187030 32.954429 7.020117 -1.600002 -174.915577 75.754808 -166.322666 0.000000 0.000000 0.000000 
0.255035 0.577918 2.420869 -2.140919 -12.593490 -9.218484 5.546672 1.845359 -62.706633 -4.464007 7.035118 96.432252 10.295030 20.770986 -30.982461 0.000000 0.000000 0.000000 -8.287911 3.374929 -41.029184 13.952257 -7.011835 115.626118 -7.629368 -21.113021 -21.783105 0.000000 0.000000 0.000000 2.480360 -0.319082 49.513440 -3.628114 1.660472 -3.033723 -1.326073 10.292518 -5.351751 9.946403 -2.933627 -21.578547 0.000000 0.000000 0.000000 -27.601346 -10.687154 0.705187 -29.036617 -9.219182 -0.117507 117.045065 -77.299106 -103.735355 0.000000 0.000000 0.000000 23.967083 7.344732 3.689751 34.002521 3.587608 -2.356279 -175.676786 80.517167 -168.484643 0.000000 0.000000 0.000000 
0.248938 0.575244 2.458505 -1.968910 -10.504300 -6.878474 5.621195 1.152174 -64.100857 -6.087134 8.548928 98.931119 10.432497 21.665349 -31.241036 0.000000 0.000000 0.000000 -8.874258 3.289068 -44.788230 15.004789 -11.724777 115.177697 -8.514276 -24.825885 -22.581375 0.000000 0.000000 0.000000 3.847514 -1.406742 50.581917 -3.616367 1.624290 -4.413191 -1.802190 9.726048 -4.499482 9.560255 -2.564483 -22.465286 0.000000 0.000000 0.000000 -29.103227 -9.669401 -0.088521 -31.636815 -2.964505 -1.679081 70.931277 -80.550805 -60.893720 0.000000 0.000000 0.000000 21.814029 5.596362 2.717114 36.521668 -0.277750 -3.584449 175.658886 85.678053 -178.299501 0.000000 0.000000 0.000000 
0.245000 0.581711 2.490621 -1.772863 -8.519822 -5.013972 5.680135 0.391938 -64.484719 -7.588314 10.029094 100.281373 10.411681 21.562007 -28.914113 0.000000 0.000000 0.000000 -9.031593 3.167005 -47.829136 15.378185 -14.025587 113.192779 -9.993297 -28.853687 -18.254669 0.000000 0.000000 0.000000 4.693159 -2.314418 51.158020 -3.140074 1.392436 -5.963286 -2.555366 9.380757 -5.080946 9.277134 -2.421577 -22.037952 0.000000 0.000000 0.000000 -30.172821 -6.858816 -2.168204 -33.931833 3.841572 -3.542184 13.345220 -77.770750 -9.573869 0.000000 0.000000 0.000000 23.464919 2.677264 1.191302 36.354331 -6.129451 -5.126425 64.687737 86.461842 67.350986 0.000000 0.000000 0.000000 
